<svg xmlns="http://www.w3.org/2000/svg" viewBox="0 0 500.56 322.05"><title>Tarjeta Ripley 2018-06</title><path d="M0,300.08c0,20.36,14.59,22,25.32,22H475.24c22.2,0,25.32-11.23,25.32-22V22.36C500.56,11.62,496.49,0,475.24,0H25.32C4.78,0,0,11.62,0,22.36Z" style="fill:#54565a"/><path d="M244,284.81c0-1.53-1.92-2.07-1.92-2.07C222.37,279.16,204,265.45,190.16,251,167.5,227.25,148.4,196.9,141,182.79c-2.22-5.08.92-5.59.92-5.59v0c38.22-14.73,44.51-53,44.51-63.49,0-48.44-45.89-62.83-87.18-62.83-15.64,0-20.81,1.27-37.1,1.27-19,0-30.28-1.27-33.26-1.27-2.56,0-4.27,2.26-4.27,4.88,0,11.73,26.69-8.12,26.69,31V242.65c0,36.08-25.39,26-25.39,34.8,0,2.87,3.34,3.89,5.26,3.89,9.46,0,20.13-1.27,35.48-1.27,19.25,0,24.12,1.27,35.17,1.27,8.13,0,9.45-1.59,9.45-3.89,0-11-34.16,5.88-34.16-41V72.08c0-9.8,7.12-9.8,17.5-9.8,37.51,0,67.14,20.79,67.75,60.26.42,26.63-19.5,52-52.75,52-11.75,0-9.1-.63-11.78-.63-1.53,0-3.22.63-3.22,2.84,0,3.07,2.41,4.61,5.24,5.37,3.65,1.56,12,2.92,20.8,16.32,22.21,36.38,47.16,90.87,104.17,90.87,21.26,0,19.16-2.53,19.16-4.49" style="fill:#a6a6a6"/><path d="M292.61,57.87l.84-.23q.38-.09.81-.15a9.08,9.08,0,0,1,.91-.05,8.36,8.36,0,0,1,3.22.6,7.57,7.57,0,0,1,2.5,1.65,7.29,7.29,0,0,1,1.63,2.47,8.18,8.18,0,0,1,0,6,7.29,7.29,0,0,1-1.63,2.47,7.57,7.57,0,0,1-2.5,1.65,8.36,8.36,0,0,1-3.22.6,11.92,11.92,0,0,1-2.25-.2,16.08,16.08,0,0,1-1.95-.46,13.54,13.54,0,0,1-1.86-.63V52.4a.13.13,0,0,1,.12-.13h3.26a.12.12,0,0,1,.12.13Zm2.56,11.91a4.56,4.56,0,0,0,1.76-.33,3.92,3.92,0,0,0,1.35-.93,4.34,4.34,0,0,0,.88-1.45,5.37,5.37,0,0,0,.31-1.88,5.43,5.43,0,0,0-.31-1.89,4.2,4.2,0,0,0-.88-1.44,4,4,0,0,0-1.35-.94,4.75,4.75,0,0,0-1.76-.33,5.62,5.62,0,0,0-.92.08l-.8.13-.84.22v8.33l.84.2a4.83,4.83,0,0,0,.81.17,6.84,6.84,0,0,0,.91.06" style="fill:#fff"/><path d="M347.86,71.19a.14.14,0,0,1,0,.17,7.49,7.49,0,0,1-1.26.79,9.44,9.44,0,0,1-1.59.6,7,7,0,0,1-2,.26,8.37,8.37,0,0,1-3.23-.6,7.57,7.57,0,0,1-2.5-1.65,7.44,7.44,0,0,1-1.63-2.47,8.34,8.34,0,0,1,0-6.06,7.54,7.54,0,0,1,1.63-2.47,7.89,7.89,0,0,1,2.5-1.65,8.37,8.37,0,0,1,3.23-.6,7.23,7.23,0,0,1,2,.25,10.8,10.8,0,0,1,1.53.53,9.1,9.1,0,0,1,1.23.74.14.14,0,0,1,0,.16l-1.24,2.37a.11.11,0,0,1-.16,0,5.85,5.85,0,0,0-.78-.44,7.9,7.9,0,0,0-1-.35,5.69,5.69,0,0,0-1.3-.14,4.37,4.37,0,0,0-1.81.37,4.78,4.78,0,0,0-1.45,1,4.63,4.63,0,0,0-1,1.46,4.43,4.43,0,0,0,0,3.5,4.52,4.52,0,0,0,1,1.46,4.61,4.61,0,0,0,1.45,1,4.37,4.37,0,0,0,1.81.37,5.4,5.4,0,0,0,1.39-.17,4.61,4.61,0,0,0,1.06-.4,6.8,6.8,0,0,0,.8-.49.11.11,0,0,1,.17,0Z" style="fill:#fff"/><path d="M348,65.26a7.9,7.9,0,0,1,.58-3,7.76,7.76,0,0,1,1.59-2.47,7.39,7.39,0,0,1,2.38-1.64,7.19,7.19,0,0,1,3-.61A7.49,7.49,0,0,1,361,59.76a7.57,7.57,0,0,1,1.58,2.47,8.48,8.48,0,0,1,0,6.06A7.47,7.47,0,0,1,361,70.76a7.2,7.2,0,0,1-2.39,1.65,7.44,7.44,0,0,1-3,.6,7.35,7.35,0,0,1-3-.6,7.26,7.26,0,0,1-2.38-1.65,7.66,7.66,0,0,1-1.59-2.47,7.86,7.86,0,0,1-.58-3m11.43,0a5.37,5.37,0,0,0-.31-1.88,4.58,4.58,0,0,0-.83-1.45,3.65,3.65,0,0,0-1.24-.93,3.67,3.67,0,0,0-3,0,3.61,3.61,0,0,0-1.23.93,4.6,4.6,0,0,0-.84,1.45,5.86,5.86,0,0,0,0,3.76,4.39,4.39,0,0,0,.84,1.45,3.38,3.38,0,0,0,1.23.93,3.67,3.67,0,0,0,3,0,3.41,3.41,0,0,0,1.24-.93,4.37,4.37,0,0,0,.83-1.45,5.34,5.34,0,0,0,.31-1.88" style="fill:#fff"/><path d="M377.31,60.67a3.52,3.52,0,0,0-.87.1l-.71.18c-.25.11-.49.22-.7.33v11a.12.12,0,0,1-.12.12h-3.26a.12.12,0,0,1-.12-.12V58.8a11.68,11.68,0,0,1,1.64-.66A15,15,0,0,1,375,57.7a11.35,11.35,0,0,1,2.09-.19,8.5,8.5,0,0,1,1.82.18,9.84,9.84,0,0,1,1.44.39,10.65,10.65,0,0,1,1.22.53.13.13,0,0,1,.07.15l-.87,2.79a.12.12,0,0,1-.17.07,6.52,6.52,0,0,0-.79-.44,10,10,0,0,0-1.09-.36,5.6,5.6,0,0,0-1.36-.15" style="fill:#fff"/><path d="M382.94,53.92a2.07,2.07,0,0,1,.62-1.5,2.13,2.13,0,0,1,3.06,0,2.14,2.14,0,0,1,0,3,2.15,2.15,0,0,1-3.06,0,2.08,2.08,0,0,1-.62-1.51m.52,4.16h3.26a.12.12,0,0,1,.12.13v14.1a.12.12,0,0,1-.12.12h-3.21a.18.18,0,0,1-.17-.18v-14a.12.12,0,0,1,.12-.13" style="fill:#fff"/><path d="M393.24,77.81H390a.12.12,0,0,1-.12-.12V58.81a.12.12,0,0,1,.08-.11,16.24,16.24,0,0,1,1.78-.63c.61-.17,1.27-.32,2-.45a13.39,13.39,0,0,1,2.22-.18,8.37,8.37,0,0,1,3.23.6,7.57,7.57,0,0,1,2.5,1.65,7.44,7.44,0,0,1,1.63,2.47,8.18,8.18,0,0,1,0,6,7.44,7.44,0,0,1-1.63,2.47,7.57,7.57,0,0,1-2.5,1.65,8.37,8.37,0,0,1-3.23.61,5.69,5.69,0,0,1-.91-.08l-.81-.13-.83-.23v5.19a.12.12,0,0,1-.12.12m2.67-17.22a7.11,7.11,0,0,0-.91.07l-.81.14-.83.23v8.32l.83.2a6.24,6.24,0,0,0,.82.17,6.8,6.8,0,0,0,.9.06,4.49,4.49,0,0,0,1.76-.33,4,4,0,0,0,1.36-.93,4.34,4.34,0,0,0,.88-1.45,5.41,5.41,0,0,0,.31-1.88,5.3,5.3,0,0,0-.31-1.88,4.15,4.15,0,0,0-.88-1.45,4,4,0,0,0-1.36-.94,4.68,4.68,0,0,0-1.76-.33" style="fill:#fff"/><path d="M406.5,72.43a.12.12,0,0,1-.11-.12V52.47a.12.12,0,0,1,.12-.12h3.26a.12.12,0,0,1,.12.12V72.31a.12.12,0,0,1-.12.12" style="fill:#fff"/><line x1="409.76" y1="72.43" x2="406.5" y2="72.43" style="fill:#fff"/><path d="M424.57,66.91h-8.72a4.73,4.73,0,0,0,1.42,2,4.34,4.34,0,0,0,2.9.85,5.85,5.85,0,0,0,1.46-.17,5.53,5.53,0,0,0,1.1-.41,5.16,5.16,0,0,0,.84-.49.12.12,0,0,1,.17,0L425,71.11a.14.14,0,0,1,0,.17,7,7,0,0,1-1.31.79,9.28,9.28,0,0,1-1.63.61,7.84,7.84,0,0,1-2.08.26,8.51,8.51,0,0,1-3.22-.59,7.53,7.53,0,0,1-2.46-1.62,7.15,7.15,0,0,1-1.57-2.46,8.42,8.42,0,0,1-.55-3.08,9.05,9.05,0,0,1,.52-3.15,7.3,7.3,0,0,1,1.48-2.45A6.53,6.53,0,0,1,416.37,58a7.61,7.61,0,0,1,5.73,0,6.53,6.53,0,0,1,2.26,1.59A7.3,7.3,0,0,1,425.84,62a9,9,0,0,1,.52,3.09.19.19,0,0,1,0,.1l-1.68,1.64a.12.12,0,0,1-.08,0m-2-3a4.2,4.2,0,0,0-1.13-2.35,3,3,0,0,0-2.23-.95,3,3,0,0,0-2.25.95,4.14,4.14,0,0,0-1.14,2.35Z" style="fill:#fff"/><path d="M442,71.2a6.17,6.17,0,0,1-2,4.59,7.39,7.39,0,0,1-2.4,1.46,8.89,8.89,0,0,1-3.25.55,8.05,8.05,0,0,1-2.17-.27,12.31,12.31,0,0,1-1.65-.59,7.54,7.54,0,0,1-1.42-.86l1.29-2.47a.11.11,0,0,1,.16,0,8.46,8.46,0,0,0,1,.51,9.06,9.06,0,0,0,1.24.4,6.19,6.19,0,0,0,1.55.17,4.24,4.24,0,0,0,2.2-.49,4,4,0,0,0,1.25-1.09,4.23,4.23,0,0,0,.72-1.58V71.2c-.32.06-.64.1-1,.14l-1,.1c-.35,0-.69,0-1,0a9,9,0,0,1-3.05-.48,6.72,6.72,0,0,1-2.23-1.35,5.59,5.59,0,0,1-1.38-2,7,7,0,0,1-.47-2.58V57.55a.12.12,0,0,1,.12-.13h3.26a.13.13,0,0,1,.12.13V65a3.17,3.17,0,0,0,.95,2.35,3.65,3.65,0,0,0,2.68,1,9.48,9.48,0,0,0,1.08-.07c.36-.05.67-.1,1-.16s.63-.13.91-.2V57.55a.13.13,0,0,1,.12-.13h3.26a.12.12,0,0,1,.12.13Z" style="fill:#fff"/><path d="M319.65,72.17V59a.26.26,0,0,1,.16-.25c.61-.22,1.25-.42,1.91-.59s1.36-.32,2.11-.45a14.19,14.19,0,0,1,2.27-.19,8.75,8.75,0,0,1,3,.49,6.43,6.43,0,0,1,2.23,1.35,5.76,5.76,0,0,1,1.38,2,6.93,6.93,0,0,1,.46,2.58v8.2a.25.25,0,0,1-.24.26h-3a.25.25,0,0,1-.24-.26V64a3.17,3.17,0,0,0-1-2.35,3.63,3.63,0,0,0-2.68-.95,5.6,5.6,0,0,0-1.09.1l-.94.18h0l-.74.25a.28.28,0,0,0-.16.25V72.17a.25.25,0,0,1-.24.26h-3a.25.25,0,0,1-.24-.26" style="fill:#fff"/><path d="M317.4,63.73a6.31,6.31,0,0,0-1.67-4.62,6.6,6.6,0,0,0-4.92-1.69,8.61,8.61,0,0,0-2.14.23,9.43,9.43,0,0,0-1.63.54,7.64,7.64,0,0,0-1.25.74.12.12,0,0,0,0,.16L307,61.47a.11.11,0,0,0,.15.05,7.42,7.42,0,0,1,1-.46c.34-.11.74-.22,1.19-.33a6.45,6.45,0,0,1,1.5-.16,3.37,3.37,0,0,1,2.35.69,2.47,2.47,0,0,1,.74,1.89c-.27,0-.56-.1-.88-.14l-1-.1c-.38,0-.78,0-1.21,0a10.72,10.72,0,0,0-3,.38,6.3,6.3,0,0,0-2.09,1,4.11,4.11,0,0,0-1.21,1.58,5.32,5.32,0,0,0,0,4,4,4,0,0,0,1.21,1.6,6.3,6.3,0,0,0,2.09,1,10.72,10.72,0,0,0,3,.38,21.23,21.23,0,0,0,2.47-.14c.71-.09,1.36-.2,2-.31l2.16-2Zm-3.5,5.59a9.47,9.47,0,0,1-.94.21l-1,.15a8.72,8.72,0,0,1-1.17.08,3.93,3.93,0,0,1-2.41-.56,1.59,1.59,0,0,1,0-2.62,3.94,3.94,0,0,1,2.41-.55c.41,0,.8,0,1.16,0l1,.1c.34,0,.66.08.94.14Z" style="fill:#fff"/><path d="M62.65,224.71a1.53,1.53,0,0,0,.38.82,1,1,0,0,0,.8.29,1.06,1.06,0,0,0,.92-.43,1.68,1.68,0,0,0,.32-1.07,1.86,1.86,0,0,0-.3-1.08,1,1,0,0,0-.92-.44,1.62,1.62,0,0,0-.52.08,1,1,0,0,0-.58.51l-1.46-.07.58-4.6h4.58v1.39h-3.4l-.3,1.82a4.43,4.43,0,0,1,.59-.33,2.75,2.75,0,0,1,.87-.13,2.52,2.52,0,0,1,2.57,2.72,3.2,3.2,0,0,1-.74,2.06,2.72,2.72,0,0,1-2.22.91,3,3,0,0,1-2-.64,2.5,2.5,0,0,1-.85-1.81Z" style="fill:none"/><path d="M73.4,225.15h-.94v1.79h-1.6v-1.79h-3.3v-1.43l3.06-5.06h1.84v5.21h.94Zm-2.54-1.28v-3.59l-2.08,3.59Z" style="fill:none"/><path d="M74.91,219.37a2.65,2.65,0,0,1,2-.83,2.59,2.59,0,0,1,2.61,1.69,6.67,6.67,0,0,1,.4,2.5,7,7,0,0,1-.39,2.52,2.69,2.69,0,0,1-2.69,1.93,2.77,2.77,0,0,1-1.69-.56,2.16,2.16,0,0,1-.85-1.61h1.63a1,1,0,0,0,.31.59.93.93,0,0,0,.67.23,1.16,1.16,0,0,0,1.14-.89,5.18,5.18,0,0,0,.22-1.44,1.73,1.73,0,0,1-.48.43,2.17,2.17,0,0,1-1.13.27,2.48,2.48,0,0,1-2.53-2.66A3.1,3.1,0,0,1,74.91,219.37Zm2.76,3.31a1.36,1.36,0,0,0,.55-1.24,1.76,1.76,0,0,0-.33-1.12,1.1,1.1,0,0,0-.9-.41,1.12,1.12,0,0,0-.72.24,1.49,1.49,0,0,0-.47,1.24,1.73,1.73,0,0,0,.3,1.11,1.12,1.12,0,0,0,.93.37A1.16,1.16,0,0,0,77.67,222.68Z" style="fill:none"/><path d="M85.8,219.67a6.48,6.48,0,0,1,.64,3.19A6.39,6.39,0,0,1,85.8,226a2.8,2.8,0,0,1-4.46,0,6.39,6.39,0,0,1-.64-3.17,6.48,6.48,0,0,1,.64-3.19,2.8,2.8,0,0,1,4.46,0Zm-3.2,5.38a1,1,0,0,0,1,.76.93.93,0,0,0,1-.76,8.15,8.15,0,0,0,.23-2.19,8,8,0,0,0-.23-2.23.93.93,0,0,0-1-.73,1,1,0,0,0-1,.73,8,8,0,0,0-.23,2.23A8.15,8.15,0,0,0,82.6,225.05Z" style="fill:none"/><path d="M419.29,287h0Zm0,0Z"/><path d="M419.29,287h0Zm0,0Z"/><path d="M500.56,161.35v-139C500.56,11.62,496.48,0,475.24,0h.1V161.35Z" style="fill:#f32735"/><rect x="475.34" y="161.35" width="25.22" height="44.99" style="fill:#fcbd1b"/><path d="M500.56,300.08V206.34H475.34V322.05h-.1C497.43,322.05,500.56,310.82,500.56,300.08Z" style="fill:#8f4899"/><path d="M372.47,82.83a.65.65,0,0,0-.65.65v3.78a.65.65,0,0,0,.65.65H407V82.83Z" style="fill:#f32735"/><rect x="406.98" y="82.83" width="10.72" height="5.07" style="fill:#fcbd1b"/><path d="M441.69,87.91a.57.57,0,0,0,.37-.16V83a.62.62,0,0,0-.37-.16h-24v5.08Z" style="fill:#8f4899"/></svg>